Coordinates
version=1
nRows=14
nColumns=24
inDegrees=yes

Units are S.I. units (second, meters, Newtons, ...)
Angles are in degrees.

endheader
time	pelvis_tilt	pelvis_list	pelvis_rotation	pelvis_tx	pelvis_ty	pelvis_tz	hip_flexion_r	hip_adduction_r	hip_rotation_r	knee_angle_r	ankle_angle_r	subtalar_angle_r	mtp_angle_r	hip_flexion_l	hip_adduction_l	hip_rotation_l	knee_angle_l	ankle_angle_l	subtalar_angle_l	mtp_angle_l	lumbar_extension	lumbar_bending	lumbar_rotation
      8.44000000	     53.38910516	      4.43045942	     -4.16498680	      1.28656037	      1.04420166	     -0.28893577	     23.42442057	     -9.34176627	      5.85642217	    -63.78601845	    -23.94946615	      0.00000000	      0.00000000	     17.83286933	    -10.86068323	     -5.32823922	    -62.78358665	    -15.11325804	      0.00000000	      0.00000000	      0.00000000	      0.00000000	      0.00000000
      8.45000000	     53.38209998	      4.43253489	     -4.16361705	      1.28657486	      1.04420126	     -0.28893628	     23.44083027	     -9.35826625	      5.89753013	    -63.96338366	    -23.97977569	      0.00000000	      0.00000000	     17.84110091	    -10.85789806	     -5.32748693	    -62.79258932	    -15.10762407	      0.00000000	      0.00000000	      0.00000000	      0.00000000	      0.00000000
      8.46000000	     53.37682743	      4.43564950	     -4.16455551	      1.28658365	      1.04419289	     -0.28893484	     23.45691131	     -9.37515628	      5.94031175	    -64.14536695	    -24.00387414	      0.00000000	      0.00000000	     17.84858703	    -10.85481035	     -5.32853809	    -62.80244126	    -15.09982749	      0.00000000	      0.00000000	      0.00000000	      0.00000000	      0.00000000
      8.47000000	     53.37270716	      4.43977865	     -4.16746293	      1.28659007	      1.04417534	     -0.28893945	     23.47413054	     -9.39344869	      5.98290485	    -64.33081332	    -24.02080242	      0.00000000	      0.00000000	     17.85577170	    -10.85146041	     -5.33158576	    -62.81306374	    -15.09025446	      0.00000000	      0.00000000	      0.00000000	      0.00000000	      0.00000000
      8.48000000	     53.36861771	      4.44428563	     -4.17095342	      1.28659688	      1.04415105	     -0.28895121	     23.49317863	     -9.41383794	      6.02414248	    -64.51840001	    -24.03065975	      0.00000000	      0.00000000	     17.86301986	    -10.84798992	     -5.33614674	    -62.82402950	    -15.07959289	      0.00000000	      0.00000000	      0.00000000	      0.00000000	      0.00000000
      8.49000000	     53.36335368	      4.44834012	     -4.17344017	      1.28660257	      1.04412850	     -0.28896314	     23.51394035	     -9.43629385	      6.06355253	    -64.70664656	    -24.03451765	      0.00000000	      0.00000000	     17.87084614	    -10.84445900	     -5.34130527	    -62.83465066	    -15.06864756	      0.00000000	      0.00000000	      0.00000000	      0.00000000	      0.00000000
      8.50000000	     53.35622019	      4.45166809	     -4.17410365	      1.28660763	      1.04411720	     -0.28897087	     23.53590628	     -9.45989520	      6.10104571	    -64.89387503	    -24.03414682	      0.00000000	      0.00000000	     17.88000206	    -10.84085883	     -5.34598167	    -62.84423541	    -15.05814553	      0.00000000	      0.00000000	      0.00000000	      0.00000000	      0.00000000
      8.51000000	     53.34710503	      4.45473723	     -4.17327692	      1.28661735	      1.04411788	     -0.28897792	     23.55861094	     -9.48335564	      6.13669767	    -65.07839225	    -24.03162078	      0.00000000	      0.00000000	     17.89119254	    -10.83723182	     -5.34917478	    -62.85245383	    -15.04858857	      0.00000000	      0.00000000	      0.00000000	      0.00000000	      0.00000000
      8.52000000	     53.33614308	      4.45816786	     -4.17206769	      1.28663400	      1.04411858	     -0.28898820	     23.58191852	     -9.50586993	      6.17071034	    -65.25883454	    -24.02887976	      0.00000000	      0.00000000	     17.90462852	    -10.83362687	     -5.35027145	    -62.85959419	    -15.04017948	      0.00000000	      0.00000000	      0.00000000	      0.00000000	      0.00000000
      8.53000000	     53.32354250	      4.46213682	     -4.17164129	      1.28665260	      1.04410666	     -0.28899874	     23.60611048	     -9.52750208	      6.20337014	    -65.43438531	    -24.02736022	      0.00000000	      0.00000000	     17.91989911	    -10.82993599	     -5.34933452	    -62.86643510	    -15.03283454	      0.00000000	      0.00000000	      0.00000000	      0.00000000	      0.00000000
      8.54000000	     53.30968287	      4.46641683	     -4.17266859	      1.28666761	      1.04408558	     -0.28900375	     23.63166059	     -9.54890628	      6.23491738	    -65.60477725	    -24.02778215	      0.00000000	      0.00000000	     17.93633808	    -10.82591226	     -5.34709145	    -62.87370667	    -15.02627786	      0.00000000	      0.00000000	      0.00000000	      0.00000000	      0.00000000
      8.55000000	     53.29505541	      4.47083407	     -4.17510671	      1.28667864	      1.04406824	     -0.28900341	     23.65875579	     -9.57073404	      6.26539632	    -65.77011951	    -24.03015016	      0.00000000	      0.00000000	     17.95345342	    -10.82135123	     -5.34460627	    -62.88154575	    -15.02018616	      0.00000000	      0.00000000	      0.00000000	      0.00000000	      0.00000000
      8.56000000	     53.27999768	      4.47556028	     -4.17824567	      1.28669092	      1.04405755	     -0.28900346	     23.68700261	     -9.59314913	      6.29462518	    -65.93051142	    -24.03395045	      0.00000000	      0.00000000	     17.97100219	    -10.81623727	     -5.34284787	    -62.88940534	    -15.01434215	      0.00000000	      0.00000000	      0.00000000	      0.00000000	      0.00000000
      8.57000000	     53.26466045	      4.48095587	     -4.18105910	      1.28671194	      1.04404596	     -0.28900716	     23.71562232	     -9.61567087	      6.32232611	    -66.08554396	    -24.03844113	      0.00000000	      0.00000000	     17.98885581	    -10.81082579	     -5.34230916	    -62.89639747	    -15.00875276	      0.00000000	      0.00000000	      0.00000000	      0.00000000	      0.00000000
